<?xml version='1.0' encoding='UTF-8' standalone='no'?><!DOCTYPE svg PUBLIC '-//W3C//DTD SVG 1.1//EN' 'http://www.w3.org/Graphics/SVG/1.1/DTD/svg11.dtd'><svg xmlns:svg='http://www.w3.org/2000/svg' xmlns='http://www.w3.org/2000/svg' xmlns:xlink='http://www.w3.org/1999/xlink' viewBox='0 0 1200 800' width='1200' height='800'><defs></defs><rect id="sfs0_0background" x="0" y="0" width="1200" height="800" style="fill: rgb(255, 255, 255); stroke-width: 0px;"></rect><g id="sfs0C"></g><g id="sfs0L"></g><g id="sfs0E"><g id="sfs0I1"><path fill="#e0c53b" stroke-width="0" d="M92.27 56.9L235.96 56.9L235.96 513.06L92.27 513.06L92.27 56.9Z"></path><g fill="#000000" font-family="Arial, Helvetica, sans-serif" font-size="18px" font-weight="normal"><text x="163.67" y="280.98" text-anchor="middle">Expenses Out</text><text x="163.67" y="300.98" text-anchor="middle">(650,000)</text></g></g><g id="sfs0C1"><path fill="#000000" fill-opacity="0.75" stroke-width="0" d="M245.96 139.99L245.96 219.99L351.36 219.99L462.69 219.99A82.52 82.52 0 0 1 478.38 221.5L557.2 236.77A143.78 143.78 0 0 0 635.48 230.07L699.89 205.66L723.13 154.08L671.55 130.84L607.14 155.26A63.78 63.78 0 0 1 572.41 158.23L493.59 142.96A162.52 162.52 0 0 0 462.69 139.99L351.36 139.99Z"></path></g><g id="sfs0I3"><path fill="#ffffff" stroke-width="0" d="M733.13 112.2C733.13 108.89 735.82 106.2 739.13 106.2L887.79 106.2C891.1 106.2 893.79 108.89 893.79 112.2L893.79 193.33C893.79 196.64 891.1 199.33 887.79 199.33L739.13 199.33C735.82 199.33 733.13 196.64 733.13 193.33L733.13 112.2Z"></path><g fill="#000000" font-family="Arial, Helvetica, sans-serif" font-size="18px" font-weight="normal"><text x="813.53" y="138.76500000000001" text-anchor="middle">Student</text><text x="813.53" y="158.76500000000001" text-anchor="middle">Scholarships</text><text x="813.53" y="178.76500000000001" text-anchor="middle">(247,000)</text></g></g><g id="sfs0I4"><path fill="#ffffff" stroke-width="0" d="M737.26 249.92C737.26 246.61 739.95 243.92 743.26 243.92L875.26 243.92C878.57 243.92 881.26 246.61 881.26 249.92L881.26 309.92C881.26 313.23 878.57 315.92 875.26 315.92L743.26 315.92C739.95 315.92 737.26 313.23 737.26 309.92L737.26 249.92Z"></path><g fill="#000000" font-family="Arial, Helvetica, sans-serif" font-size="18px" font-weight="normal"><text x="809.66" y="275.92" text-anchor="middle">PEAC</text><text x="809.66" y="295.92" text-anchor="middle">(210,000)</text></g></g><g id="sfs0I6"><path fill="#ffffff" stroke-width="0" d="M733.13 352.91C733.13 349.6 735.82 346.91 739.13 346.91L871.13 346.91C874.44 346.91 877.13 349.6 877.13 352.91L877.13 412.91C877.13 416.22 874.44 418.91 871.13 418.91L739.13 418.91C735.82 418.91 733.13 416.22 733.13 412.91L733.13 352.91Z"></path><g fill="#000000" font-family="Arial, Helvetica, sans-serif" font-size="18px" font-weight="normal"><text x="805.53" y="368.91" text-anchor="middle">Faculty and</text><text x="805.53" y="388.91" text-anchor="middle">Staff</text><text x="805.53" y="408.91" text-anchor="middle">(165,000)</text></g></g><g id="sfs0I7"><path fill="#ffffff" stroke-width="0" d="M733.13 472.12C733.13 468.81 735.82 466.12 739.13 466.12L875.26 466.12C878.57 466.12 881.26 468.81 881.26 472.12L881.26 532.12C881.26 535.43 878.57 538.12 875.26 538.12L739.13 538.12C735.82 538.12 733.13 535.43 733.13 532.12L733.13 472.12Z"></path><g fill="#000000" font-family="Arial, Helvetica, sans-serif" font-size="18px" font-weight="normal"><text x="807.53" y="488.12" text-anchor="middle">Events/General</text><text x="807.53" y="508.12" text-anchor="middle">Operation</text><text x="807.53" y="528.12" text-anchor="middle">(24,000)</text></g></g><g id="sfs0C6"><path fill="#000000" fill-opacity="0.75" stroke-width="0" d="M245.96 230.69L245.96 298.71L361.29 298.7L393.22 298.71A71.71 71.71 0 0 1 422.84 305.12L492.55 336.72A132.49 132.49 0 0 0 563.17 347.6L697.58 331.34L727.26 293.5L689.42 263.82L555.01 280.07A64.47 64.47 0 0 1 520.65 274.78L450.94 243.18A139.72 139.72 0 0 0 393.22 230.7L361.29 230.69Z"></path></g><g id="sfs0C7"><path fill="#e0c53b" stroke-width="0" d="M245.96 307.44L245.96 360.88L370.73 360.88A68.11 68.11 0 0 1 402.82 368.92L525.42 434.41A111.54 111.54 0 0 0 595.98 446.11L701.07 428.91L723.13 398.23L692.45 376.17L587.35 393.37A58.1 58.1 0 0 1 550.6 387.28L428 321.78A121.55 121.55 0 0 0 370.73 307.44Z"></path></g><g id="sfs0C8"><path fill="#000000" fill-opacity="0.75" stroke-width="0" d="M245.96 380.74L245.96 388.78L379.17 424.47A78.73 78.73 0 0 1 400.53 433.77L539.8 520.87A67.89 67.89 0 0 0 581.23 530.98L717.16 520.06L716.25 523.77L723.13 515.69L715.05 508.82L716.54 512.32L580.61 523.23A60.12 60.12 0 0 1 543.92 514.28L404.66 427.18A86.5 86.5 0 0 0 381.18 416.96Z"></path></g></g><g id="sfs0B" style=""></g><g id="sfs0S" transform="" style=""></g><g id="sfs0H" style="font-size: 10pt;"></g><a id="sfs0Brand" class="sfsBrand" transform="translate(1176,0)" xlink:href="http://www.sankeyflowshow.com" style="cursor: pointer;"><path d="M 0,24 l 0,-5 a 13,13 0 0 1 13,-13 l 1.25,0 3.75,3.75 -3.75,3.75 -1.25,0 a 5.5,5.5 0 0 0 -5.5,5.5 l 0,5 Z" fill="#535d03"></path><path d="M 7.5,24 l 0,-5 a 5.5,5.5 0 0 1 5.5,-5.5 l 1.25,0 2.5,2.5 -2.5,2.5 -1.25,0 a 0.5,0.5 0 0 0 -0.5,0.5 l 0,5 Z" fill="#a9bf04"></path><text text-anchor="end" x="-5" y="21" style="fill: #000; font-family: Arial,sans-serif; font-size: 12px; font-weight: normal; cursor: pointer;">created with www.sankeyflowshow.com</text></a></svg>