<?xml version='1.0' encoding='UTF-8' standalone='no'?><!DOCTYPE svg PUBLIC '-//W3C//DTD SVG 1.1//EN' 'http://www.w3.org/Graphics/SVG/1.1/DTD/svg11.dtd'><svg xmlns:svg='http://www.w3.org/2000/svg' xmlns='http://www.w3.org/2000/svg' xmlns:xlink='http://www.w3.org/1999/xlink' viewBox='0 0 1200 800' width='1200' height='800'><defs></defs><rect id="sfs0_0background" x="0" y="0" width="1200" height="800" style="fill: rgb(255, 255, 255); stroke-width: 0px;"></rect><g id="sfs0C"></g><g id="sfs0L"></g><g id="sfs0E"><g id="sfs0I1"><path fill="#eddd8d" stroke-width="0" d="M96.11 111.3L239.8 111.3L239.8 452.98L96.11 452.98L96.11 111.3Z"></path><g fill="#000000" font-family="Arial, Helvetica, sans-serif" font-size="18px" font-weight="normal"><text x="167.51" y="278.14" text-anchor="middle">Expenses Out</text><text x="167.51" y="298.14" text-anchor="middle">(65,000)</text></g></g><g id="sfs0C1"><path fill="#e0c53b" stroke-width="0" d="M249.8 161.16L249.8 241.16L506.51 241.16A145.66 145.66 0 0 0 579.34 221.65L628.02 193.54A68.84 68.84 0 0 1 658.9 184.41L713.19 181.62L751.08 139.61L709.07 101.72L654.78 104.51A148.84 148.84 0 0 0 588.02 124.25L539.34 152.37A65.66 65.66 0 0 1 506.51 161.16Z"></path></g><g id="sfs0I3"><path fill="#ffffff" stroke-width="0" d="M761.08 103.18C761.08 99.87 763.77 97.18 767.08 97.18L870.26 97.18C873.57 97.18 876.26 99.87 876.26 103.18L876.26 163.18C876.26 166.49 873.57 169.18 870.26 169.18L767.08 169.18C763.77 169.18 761.08 166.49 761.08 163.18L761.08 103.18Z"></path><g fill="#000000" font-family="Arial, Helvetica, sans-serif" font-size="18px" font-weight="normal"><text x="818.48" y="119.18" text-anchor="middle">Student</text><text x="818.48" y="139.18" text-anchor="middle">Scholarships</text><text x="818.48" y="159.18" text-anchor="middle">(247,000)</text></g></g><g id="sfs0I4"><path fill="#ffffff" stroke-width="0" d="M752.78 175.18C752.78 171.87 755.47 169.18 758.78 169.18L870.26 169.18C873.57 169.18 876.26 171.87 876.26 175.18L876.26 235.18C876.26 238.49 873.57 241.18 870.26 241.18L758.78 241.18C755.47 241.18 752.78 238.49 752.78 235.18L752.78 175.18Z"></path><g fill="#000000" font-family="Arial, Helvetica, sans-serif" font-size="18px" font-weight="normal"><text x="814.18" y="201.18" text-anchor="middle">PEAC</text><text x="814.18" y="221.18" text-anchor="middle">(210,000)</text></g></g><g id="sfs0I6"><path fill="#ffffff" stroke-width="0" d="M761.08 247.18C761.08 243.87 763.77 241.18 767.08 241.18L870.26 241.18C873.57 241.18 876.26 243.87 876.26 247.18L876.26 307.18C876.26 310.49 873.57 313.18 870.26 313.18L767.08 313.18C763.77 313.18 761.08 310.49 761.08 307.18L761.08 247.18Z"></path><g fill="#000000" font-family="Arial, Helvetica, sans-serif" font-size="18px" font-weight="normal"><text x="818.48" y="263.18" text-anchor="middle">Faculty and</text><text x="818.48" y="283.18" text-anchor="middle">Staff</text><text x="818.48" y="303.18" text-anchor="middle">(165,000)</text></g></g><g id="sfs0I7"><path fill="#ffffff" stroke-width="0" d="M752.78 319.18C752.78 315.87 755.47 313.18 758.78 313.18L890.78 313.18C894.09 313.18 896.78 315.87 896.78 319.18L896.78 379.18C896.78 382.49 894.09 385.18 890.78 385.18L758.78 385.18C755.47 385.18 752.78 382.49 752.78 379.18L752.78 319.18Z"></path><g fill="#000000" font-family="Arial, Helvetica, sans-serif" font-size="18px" font-weight="normal"><text x="825.18" y="335.18" text-anchor="middle">Events/General</text><text x="822.68" y="355.18" text-anchor="middle">Operation</text><text x="825.18" y="375.18" text-anchor="middle">(24,000)</text></g></g><g id="sfs0C6"><path fill="#f2e6aa" stroke-width="0" d="M249.8 238.08L249.8 306.1L510.27 306.09A133.88 133.88 0 0 0 577.21 288.16L621.9 262.36A69.9 69.9 0 0 1 652.19 253.15L723.06 248.43L754.72 212.23L718.52 180.57L647.66 185.29A137.92 137.92 0 0 0 587.89 203.46L543.2 229.25A65.87 65.87 0 0 1 510.27 238.08Z"></path></g><g id="sfs0C7"><path fill="#f0f0f0" stroke-width="0" d="M249.8 306.19L249.8 359.63L511.18 359.63A121.67 121.67 0 0 0 568.28 345.4L631.36 311.89A68.23 68.23 0 0 1 663.38 303.91L724.36 303.91L751.08 277.19L724.36 250.47L663.38 250.47A121.67 121.67 0 0 0 606.28 264.7L543.2 298.21A68.23 68.23 0 0 1 511.18 306.19Z"></path></g><g id="sfs0C8"><path fill="#ffffff" stroke-width="0" d="M249.8 351.63L249.8 359.41L546.51 359.41A87.68 87.68 0 0 0 569.82 356.25L641.22 336.56A79.9 79.9 0 0 1 662.47 333.69L749.22 333.69L748.02 337.3L755.52 329.8L748.02 322.3L749.22 325.91L662.47 325.91A87.68 87.68 0 0 0 639.16 329.07L567.76 348.76A79.9 79.9 0 0 1 546.51 351.63Z"></path></g></g><g id="sfs0B"></g><g id="sfs0S" transform=""></g><g id="sfs0H" style="font-size: 10pt;"></g><a id="sfs0Brand" class="sfsBrand" transform="translate(1176,0)" xlink:href="http://www.sankeyflowshow.com" style="cursor: pointer;"><path d="M 0,24 l 0,-5 a 13,13 0 0 1 13,-13 l 1.25,0 3.75,3.75 -3.75,3.75 -1.25,0 a 5.5,5.5 0 0 0 -5.5,5.5 l 0,5 Z" fill="#535d03"></path><path d="M 7.5,24 l 0,-5 a 5.5,5.5 0 0 1 5.5,-5.5 l 1.25,0 2.5,2.5 -2.5,2.5 -1.25,0 a 0.5,0.5 0 0 0 -0.5,0.5 l 0,5 Z" fill="#a9bf04"></path><text text-anchor="end" x="-5" y="21" style="fill: #000; font-family: Arial,sans-serif; font-size: 12px; font-weight: normal; cursor: pointer;">created with www.sankeyflowshow.com</text></a></svg>