<?xml version='1.0' encoding='UTF-8' standalone='no'?><!DOCTYPE svg PUBLIC '-//W3C//DTD SVG 1.1//EN' 'http://www.w3.org/Graphics/SVG/1.1/DTD/svg11.dtd'><svg xmlns:svg='http://www.w3.org/2000/svg' xmlns='http://www.w3.org/2000/svg' xmlns:xlink='http://www.w3.org/1999/xlink' viewBox='0 0 1200 800' width='1200' height='800'><defs></defs><rect id="sfs0_0background" x="0" y="0" width="1200" height="800" style="fill: rgb(255, 255, 255); stroke-width: 0px;"></rect><g id="sfs0C"></g><g id="sfs0L"></g><g id="sfs0E"><g id="sfs0I1"><path fill="#e0c53b" stroke-width="0" d="M102.54 129.11L252.18 129.11L252.18 530.18L102.54 530.18L102.54 129.11Z"></path><g fill="#000000" font-family="Arial, Helvetica, sans-serif" font-size="18px" font-weight="normal"><text x="176.94" y="325.645" text-anchor="middle">Expenses Out</text><text x="176.94" y="345.645" text-anchor="middle">(650,000)</text></g></g><g id="sfs0I3"><path fill="#ffffff" stroke-width="0" d="M735.2 115.35C735.2 112.04 737.89 109.35 741.2 109.35L877.33 109.35C880.64 109.35 883.33 112.04 883.33 115.35L883.33 196.48C883.33 199.79 880.64 202.48 877.33 202.48L741.2 202.48C737.89 202.48 735.2 199.79 735.2 196.48L735.2 115.35Z"></path><g fill="#000000" font-family="Arial, Helvetica, sans-serif" font-size="18px" font-weight="normal" class=""><text x="809.6" y="141.915" text-anchor="middle">Student</text><text x="809.6" y="161.915" text-anchor="middle">Scholarships</text><text x="809.6" y="181.915" text-anchor="middle">(247,000)</text></g></g><g id="sfs0I4"><path fill="#ffffff" stroke-width="0" d="M728.93 216.79C728.93 213.48 731.62 210.79 734.93 210.79L877.33 210.79C880.64 210.79 883.33 213.48 883.33 216.79L883.33 276.79C883.33 280.1 880.64 282.79 877.33 282.79L734.93 282.79C731.62 282.79 728.93 280.1 728.93 276.79L728.93 216.79Z"></path><g fill="#000000" font-family="Arial, Helvetica, sans-serif" font-size="18px" font-weight="normal"><text x="806.33" y="242.79" text-anchor="middle">PEAC</text><text x="806.33" y="262.78999999999996" text-anchor="middle">(210,000)</text></g></g><g id="sfs0I6"><path fill="#ffffff" stroke-width="0" d="M735.2 299.65C735.2 296.34 737.89 293.65 741.2 293.65L873.2 293.65C876.51 293.65 879.2 296.34 879.2 299.65L879.2 359.65C879.2 362.96 876.51 365.65 873.2 365.65L741.2 365.65C737.89 365.65 735.2 362.96 735.2 359.65L735.2 299.65Z"></path><g fill="#000000" font-family="Arial, Helvetica, sans-serif" font-size="18px" font-weight="normal"><text x="807.6" y="315.65" text-anchor="middle">Faculty and</text><text x="807.6" y="335.65" text-anchor="middle">Staff</text><text x="807.6" y="355.65" text-anchor="middle">(165,000)</text></g></g><g id="sfs0I7"><path fill="#ffffff" stroke-width="0" d="M735.2 362.74C735.2 359.43 737.89 356.74 741.2 356.74L877.33 356.74C880.64 356.74 883.33 359.43 883.33 362.74L883.33 422.74C883.33 426.05 880.64 428.74 877.33 428.74L741.2 428.74C737.89 428.74 735.2 426.05 735.2 422.74L735.2 362.74Z"></path><g fill="#000000" font-family="Arial, Helvetica, sans-serif" font-size="18px" font-weight="normal"><text x="809.6" y="378.74" text-anchor="middle">Events/General</text><text x="809.6" y="398.74" text-anchor="middle">Operation</text><text x="809.6" y="418.74" text-anchor="middle">(24,000)</text></g></g><g id="sfs0C9"><path fill="#e0c53b" stroke-width="0" d="M262.18 181.84L262.18 261.84L594.65 261.84A150.93 150.93 0 0 0 658.51 247.67L722.8 217.63L742.12 164.47L688.96 145.15L624.66 175.18A70.93 70.93 0 0 1 594.65 181.84Z"></path></g><g id="sfs0C10"><path fill="#e0c53b" stroke-width="0" d="M262.18 265.4L262.18 333.42L594.74 333.42A149.06 149.06 0 0 0 629.31 329.36L718.04 308.21L743.23 267.24L702.26 242.05L613.54 263.2A81.05 81.05 0 0 1 594.74 265.41Z"></path></g><g id="sfs0C11"><path fill="#ffffff" stroke-width="0" d="M262.18 339.21L262.18 392.65L591.2 392.65A135.53 135.53 0 0 0 618.94 389.79L724.1 367.79L744.79 336.16L713.16 315.47L608 337.48A82.09 82.09 0 0 1 591.2 339.21Z"></path></g><g id="sfs0C12"><path fill="#ffffff" stroke-width="0" d="M262.18 397.76L262.18 405.54L618.28 405.53A89.51 89.51 0 0 0 637.84 403.37L732.91 382.1L732.52 385.89L738.2 376.93L729.24 371.25L731.21 374.52L636.14 395.78A81.74 81.74 0 0 1 618.28 397.76Z"></path></g></g><g id="sfs0B" style=""></g><g id="sfs0S" transform="" style=""></g><g id="sfs0H" style="font-size: 10pt;"></g><a id="sfs0Brand" class="sfsBrand" transform="translate(1176,0)" xlink:href="http://www.sankeyflowshow.com" style="cursor: pointer;"><path d="M 0,24 l 0,-5 a 13,13 0 0 1 13,-13 l 1.25,0 3.75,3.75 -3.75,3.75 -1.25,0 a 5.5,5.5 0 0 0 -5.5,5.5 l 0,5 Z" fill="#535d03"></path><path d="M 7.5,24 l 0,-5 a 5.5,5.5 0 0 1 5.5,-5.5 l 1.25,0 2.5,2.5 -2.5,2.5 -1.25,0 a 0.5,0.5 0 0 0 -0.5,0.5 l 0,5 Z" fill="#a9bf04"></path><text text-anchor="end" x="-5" y="21" style="fill: #000; font-family: Arial,sans-serif; font-size: 12px; font-weight: normal; cursor: pointer;">created with www.sankeyflowshow.com</text></a></svg>